<svg width="144" height="53" fill="none" xmlns="http://www.w3.org/2000/svg"><path d="M10.2 17.168c-.896 0-1.666-.21-2.31-.63a3.369 3.369 0 0 1-1.33-1.764l.84-.49c.177.607.504 1.083.98 1.428.476.336 1.087.504 1.834.504.728 0 1.293-.159 1.694-.476.41-.327.616-.756.616-1.288 0-.513-.187-.9-.56-1.162-.373-.261-.99-.532-1.848-.812-1.017-.336-1.69-.607-2.016-.812-.747-.448-1.12-1.097-1.12-1.946 0-.83.29-1.484.868-1.96.579-.485 1.293-.728 2.142-.728.765 0 1.428.2 1.988.602.56.392.975.896 1.246 1.512l-.826.462c-.448-1.083-1.25-1.624-2.408-1.624-.607 0-1.097.15-1.47.448-.373.299-.56.714-.56 1.246 0 .485.168.85.504 1.092.336.243.891.49 1.666.742.355.121.607.21.756.266.159.047.383.13.672.252.299.112.518.215.658.308.14.084.308.205.504.364.205.15.35.303.434.462.093.15.173.336.238.56.075.215.112.448.112.7 0 .83-.303 1.498-.91 2.002-.607.495-1.405.742-2.394.742Zm11.118-.952c-.672.635-1.549.952-2.632.952-1.082 0-1.96-.317-2.632-.952-.672-.635-1.008-1.484-1.008-2.548V7.2h.98v6.468c0 .784.234 1.405.7 1.862.467.457 1.12.686 1.96.686.84 0 1.494-.229 1.96-.686.467-.457.7-1.078.7-1.862V7.2h.98v6.468c0 1.064-.336 1.913-1.008 2.548Zm9.41-9.016h.98V17h-.84l-5.46-7.98V17h-.98V7.2h.84l5.46 7.98V7.2Zm12.176 0V17h-.98V8.684l-3.43 5.74h-.14l-3.43-5.74V17h-.98V7.2h1.218l3.262 5.46 3.262-5.46h1.218Zm8.761 9.8-.91-2.408h-4.648L45.198 17h-1.036l3.767-9.8h1.008l3.766 9.8h-1.036Zm-5.207-3.332h3.948l-1.974-5.25-1.974 5.25ZM59.98 17l-2.296-3.92H54.94V17h-.98V7.2h3.92c.812 0 1.502.29 2.072.868.579.57.868 1.26.868 2.072 0 .663-.2 1.255-.602 1.778a2.849 2.849 0 0 1-1.512 1.036L61.1 17h-1.12Zm-5.04-8.876v4.032h2.94c.541 0 1.003-.196 1.386-.588.383-.401.574-.877.574-1.428 0-.56-.192-1.036-.574-1.428a1.866 1.866 0 0 0-1.386-.588h-2.94ZM72.025 17l-2.296-3.92h-2.744V17h-.98V7.2h3.92c.812 0 1.502.29 2.072.868.578.57.868 1.26.868 2.072 0 .663-.2 1.255-.602 1.778a2.849 2.849 0 0 1-1.512 1.036L73.145 17h-1.12Zm-5.04-8.876v4.032h2.94c.541 0 1.003-.196 1.386-.588a2 2 0 0 0 .574-1.428c0-.56-.192-1.036-.574-1.428a1.866 1.866 0 0 0-1.386-.588h-2.94Zm8.545 7.952h4.76V17h-5.74V7.2h5.67v.924h-4.69v3.472h4.34v.924h-4.34v3.556Zm9.523 1.092c-.895 0-1.665-.21-2.31-.63a3.369 3.369 0 0 1-1.33-1.764l.84-.49c.178.607.504 1.083.98 1.428.477.336 1.088.504 1.834.504.729 0 1.293-.159 1.695-.476.41-.327.615-.756.615-1.288 0-.513-.186-.9-.56-1.162-.373-.261-.989-.532-1.847-.812-1.018-.336-1.69-.607-2.016-.812-.747-.448-1.12-1.097-1.12-1.946 0-.83.289-1.484.867-1.96.58-.485 1.293-.728 2.143-.728.765 0 1.428.2 1.988.602.56.392.975.896 1.246 1.512l-.827.462c-.448-1.083-1.25-1.624-2.407-1.624-.607 0-1.097.15-1.47.448-.374.299-.56.714-.56 1.246 0 .485.168.85.504 1.092.335.243.89.49 1.666.742.354.121.606.21.756.266.158.047.382.13.672.252.298.112.517.215.657.308.14.084.308.205.504.364.206.15.35.303.434.462.094.15.173.336.239.56.074.215.112.448.112.7 0 .83-.304 1.498-.91 2.002-.607.495-1.405.742-2.394.742ZM89.972 7.2h.98V17h-.98V7.2Zm7.006 0c1.335 0 2.436.476 3.304 1.428.877.943 1.316 2.1 1.316 3.472 0 1.372-.439 2.534-1.316 3.486-.868.943-1.97 1.414-3.304 1.414h-3.78V7.2h3.78Zm0 8.876c1.074 0 1.95-.383 2.632-1.148.691-.765 1.036-1.708 1.036-2.828 0-1.12-.345-2.063-1.036-2.828-.681-.765-1.558-1.148-2.632-1.148h-2.8v7.952h2.8Zm7.276 0h4.76V17h-5.74V7.2h5.67v.924h-4.69v3.472h4.34v.924h-4.34v3.556ZM116.998 7.2h.98V17h-.84l-5.46-7.98V17h-.98V7.2h.84l5.46 7.98V7.2Zm7.794 9.968c-1.484 0-2.712-.49-3.682-1.47-.971-.98-1.456-2.18-1.456-3.598 0-1.419.485-2.618 1.456-3.598.97-.98 2.198-1.47 3.682-1.47.905 0 1.736.22 2.492.658a4.508 4.508 0 0 1 1.75 1.75l-.868.504a3.484 3.484 0 0 0-1.372-1.428 3.896 3.896 0 0 0-2.002-.532c-1.223 0-2.222.397-2.996 1.19-.775.793-1.162 1.769-1.162 2.926 0 1.157.387 2.133 1.162 2.926.774.793 1.773 1.19 2.996 1.19.728 0 1.395-.177 2.002-.532a3.485 3.485 0 0 0 1.372-1.428l.868.49a4.485 4.485 0 0 1-1.75 1.764 4.877 4.877 0 0 1-2.492.658Zm6.833-1.092h4.76V17h-5.74V7.2h5.67v.924h-4.69v3.472h4.34v.924h-4.34v3.556Z" fill="#fff"/><path fill-rule="evenodd" clip-rule="evenodd" d="M5.115 29.174c-1.91.584-3.493 2.166-4.022 4.018-.312 1.093-.253 2.591.143 3.649.58 1.547 1.61 2.467 5.477 4.892 3.111 1.95 4.138 2.83 4.685 4.01 1.415 3.052-1.175 6.061-4.66 5.414-2.275-.423-4.072-1.941-5.34-4.514-.532-1.079-.84-1.514-1.07-1.514-.179 0-.326.1-.328.221-.002.122.21 1.796.472 3.72.455 3.35.492 3.499.866 3.499.27 0 .425-.138.502-.45.202-.808.713-.862 2.604-.276.94.29 2.174.582 2.742.646 1.372.156 3.386-.174 4.489-.736 1.17-.596 2.5-1.862 2.96-2.817.763-1.583.761-3.902-.004-5.41-.5-.984-1.927-2.318-3.73-3.485-6.214-4.027-6.462-4.234-6.866-5.752-.56-2.106.992-3.898 3.366-3.886 2.775.013 5.076 1.991 6.027 5.18.162.546.291.689.618.689.232 0 .413-.106.413-.243 0-.319-.498-5.298-.627-6.267-.123-.93-.475-.987-1.14-.186-.53.637-.414.644-3.253-.2C8.183 29 6.01 28.9 5.115 29.173Zm103.764-.022c-.048.078-1.805 4.2-3.905 9.16-5.195 12.273-5.326 12.527-6.693 12.965-.29.093-.554.303-.586.465-.051.267.262.295 3.306.295 2.859 0 3.362-.04 3.362-.263 0-.171-.25-.304-.712-.378-.391-.063-.906-.269-1.145-.458-.66-.522-.56-1.321.493-3.95l.923-2.302 4.339-.047c3.339-.037 4.379.004 4.512.177.096.123.558 1.141 1.028 2.261 1.032 2.463 1.159 3.644.434 4.014-.243.123-.739.27-1.102.328-.414.064-.661.2-.661.36 0 .22.657.258 4.319.258 3.76 0 4.319-.035 4.319-.27 0-.15-.139-.315-.309-.368-.99-.308-1.469-.653-1.876-1.35-.246-.422-2.345-5.109-4.665-10.416a3577.64 3577.64 0 0 0-4.441-10.137c-.212-.46-.748-.656-.94-.344Zm-90.895.53c0 .246.235.368 1.028.532.689.143 1.168.364 1.454.67l.427.456L21 38.72c.09 6.137.157 7.56.403 8.432.638 2.269 1.728 3.599 3.72 4.544 2.418 1.146 6.586 1.152 9.15.012.973-.433 2.283-1.628 2.85-2.6.955-1.637.994-1.964 1.139-9.56.083-4.406.21-7.334.335-7.742.26-.848.858-1.308 2.05-1.576.736-.165.96-.291.96-.542 0-.307-.233-.326-3.967-.326-3.841 0-3.966.012-3.966.352 0 .273.156.378.692.464.99.159 1.75.685 2.095 1.447.263.583.298 1.456.298 7.48 0 6.633-.012 6.856-.408 8.124-.83 2.656-2.874 3.863-6.285 3.714-1.393-.062-1.804-.154-2.67-.599-1.195-.614-2.035-1.62-2.479-2.965-.261-.793-.313-1.88-.37-7.742-.035-3.752-.015-7.16.047-7.577.168-1.132.677-1.607 1.984-1.848.875-.162 1.102-.27 1.102-.527 0-.304-.274-.323-4.848-.323-4.55 0-4.848.02-4.848.32Zm24.504.036c0 .257.117.354.429.354.721 0 1.386.34 2.17 1.11l.75.735v8.087c0 4.695-.075 8.488-.178 9.042-.285 1.53-.737 1.927-2.687 2.36-.266.058-.484.225-.484.369 0 .224.591.262 4.054.262s4.055-.038 4.055-.262c0-.144-.218-.31-.485-.367-2.77-.595-2.84-.867-2.855-11.032-.006-3.865.055-6.413.153-6.377.09.032 3.506 4.224 7.593 9.314 4.086 5.09 7.537 9.256 7.67 9.256.199 0 .253-1.716.316-10.053.041-5.529.135-10.274.209-10.544.235-.862.981-1.483 2.081-1.73.779-.175 1.007-.3 1.007-.553 0-.307-.234-.326-4.055-.326-3.786 0-4.054.021-4.054.32 0 .245.234.367 1.027.531 1.093.227 1.606.623 1.996 1.54.26.613.458 13.913.207 13.897-.08-.005-3.04-3.668-6.58-8.14l-6.434-8.13-2.953-.009c-2.838-.008-2.952.005-2.952.346Zm24.68-.023c0 .265.18.355.908.452.5.067 1.12.23 1.376.364.96.499.971.6 1.031 8.95.056 7.813-.066 10.125-.577 10.908-.243.373-1.192.811-2.254 1.04-.267.057-.485.222-.485.366 0 .224.583.262 3.98.262 3.671 0 3.974-.023 3.92-.305-.039-.204-.303-.347-.798-.432-1.1-.189-1.454-.446-1.874-1.36-.368-.799-.382-1.074-.434-8.504-.03-4.223.01-7.638.088-7.59.078.05 2.006 4.162 4.284 9.14 3.002 6.562 4.22 9.051 4.43 9.051.21 0 1.374-2.432 4.302-8.99 2.207-4.944 4.159-9.268 4.337-9.61.317-.608.322-.454.282 7.98-.037 7.781-.07 8.643-.343 9.063-.303.465-.892.723-2.122.93-.41.07-.66.21-.66.37 0 .219.722.257 4.847.257 4.164 0 4.848-.037 4.848-.262 0-.144-.218-.307-.485-.362-1.239-.256-1.775-.464-2.087-.81-.323-.359-.337-.766-.337-9.818V31.34l.427-.457c.286-.306.765-.527 1.454-.67.793-.164 1.028-.286 1.028-.532 0-.296-.244-.319-3.417-.319h-3.416l-1.495 3.41c-.822 1.876-2.512 5.743-3.755 8.594-1.244 2.852-2.313 5.124-2.377 5.049-.063-.075-1.849-3.942-3.967-8.594l-3.852-8.459h-3.404c-3.208 0-3.404.02-3.404.332Zm54.999-.023c0 .27.2.389.946.556.587.132 1.105.383 1.366.662l.421.45.046 9.153c.043 8.447.022 9.2-.264 9.768-.305.604-.798.883-2.03 1.147-.267.058-.485.223-.485.367 0 .225.664.262 4.672.262s4.671-.037 4.671-.262c0-.144-.218-.307-.485-.362-2.474-.51-2.41-.365-2.479-5.612l-.056-4.215h1.904l4.023 5.226 4.023 5.225h2.806c2.553 0 2.801-.027 2.748-.303-.034-.175-.29-.35-.611-.416-1.124-.231-1.86-.963-5.532-5.5-2.052-2.535-3.704-4.63-3.67-4.655.034-.025.458-.133.943-.24 1.999-.445 3.664-1.5 4.426-2.807.38-.653.499-1.118.561-2.193.188-3.248-1.255-5.126-4.65-6.056-1.265-.346-1.947-.389-7.344-.46-5.798-.077-5.95-.07-5.95.265Zm10.748 1.3c1.217.263 2.458 1.136 3 2.111.376.677.443 1.025.443 2.303 0 1.335-.057 1.603-.5 2.361-.893 1.526-2.582 2.25-5.891 2.528l-1.454.122v-4.484c0-5.41-.11-5.133 2.046-5.133.805 0 1.865.087 2.356.193Zm-22.568 7.678c.975 2.33 1.772 4.344 1.772 4.473 0 .187-.761.234-3.79.234-2.084 0-3.79-.038-3.79-.084 0-.078 2.572-6.369 3.392-8.295.199-.468.425-.787.503-.709.078.079.939 2.05 1.913 4.38Z" fill="#fff"/></svg>