<svg width="62" height="962" fill="none" xmlns="http://www.w3.org/2000/svg"><path d="M11.178-6 2.574 2.605h19.503v19.79m0 19.79H2l20.077 20.078m0-20.078 20.364 20.078M22.077 42.184 2.574 22.682 30.682-6h11.76M22.076 42.185v-19.79m0 39.868h20.364m-20.364 0L2.574 82.34h19.503v20.077m40.728-40.154L82.31 42.184M62.805 62.263 82.31 82.34l20.077-20.078m-39.58 0H42.44M82.31 42.186h20.077m-20.077 0H62.805m19.504 0 20.077 20.078m0-20.078-39.58-39.58m39.58 39.58v-19.79m0 19.79 19.504 20.078M62.805 2.605v19.79m0-19.79L53.053-6H42.441m20.364 8.605h19.79m-19.79 39.58L42.441 62.263m20.364-20.078v-19.79m0 19.79L110.99-6m-8.604 68.263h19.504m-79.449 0V42.184m0 20.078V82.34m0-20.078L2.574 101.844l60.805 60.805M42.44 62.263 61.658 81.57M42.441-6v8.605m0 0-20.364 19.79m20.364-19.79 20.364 19.79m-40.728 0 20.364 19.79m0 0 20.364-19.79M73.131-6l9.465 8.605m0 0h19.79v19.79m-19.79-19.79L90.913-6m30.977 0v8.605l-19.504 19.79m0 0 19.504 19.79v20.078m-19.504 359.094 19.504-19.503V381.49m-19.504 39.867 19.504 20.078v20.077m-19.504-40.155v20.078m0-20.078v-19.503m19.504 139.393V521.17l-19.504-20.077 19.504-19.504v-20.077m0 79.735-19.504 19.504m19.504-19.504h-19.504m19.504 0-19.504-20.077m0 39.581 19.504 20.077m-19.504-20.077H82.022m39.868 20.077v20.651l-19.504 18.93 19.504 20.077v20.364m0-80.022-19.504 19.503m19.504-19.503h-19.504m0 119.316 19.504-18.93V660.85m-19.504 39.294 19.504 20.651v20.077m-19.504-40.728v20.651m0-20.651v-18.93m0 258.709 19.504-19.504v-20.364m-19.504 39.868v-19.504m0 19.504V960m0-20.077L121.89 960h-19.504m0-39.581 19.504-20.364m-19.504 20.364H82.022m20.364 0L61.658 960v-20.077m60.232-39.868v-20.364l-19.504-19.503 19.504-18.93v-20.651m0 79.448-19.504-20.364m19.504 20.364h-19.504m0-20.364v-38.433m0 38.433H82.022m20.364 0-80.657-79.735m80.657 41.302 19.504-20.651m-19.504 20.651H82.022m20.364 0-40.728 38.433m60.232-59.084v-20.651l-19.504-19.504 19.504-19.503v-20.077m0 79.735h-19.504m19.504 0-19.504-20.651m0 0v-39.007m0 39.007H82.022m20.364 0L2 700.144l100.386-99.813m0 160.618 19.504-20.077m-19.504 20.077-80.309 80.309m80.309-80.309h-19.79m39.294-20.077-19.504-20.077m19.504 20.077h-19.504m0-20.077-39.771-40.231m39.771 40.231-19.79-.095m19.79-39.486 19.504-20.364m-19.504 20.364-39.58 39.391m39.58-39.391-39.771-.65m59.275-19.714-19.504-20.364m19.504 20.364h-19.504m0-20.364v-40.155m0 40.155-39.924-39.868m39.924 39.868H82.501m19.885-40.155-39.924.287m39.924-19.79-20.077-20.077m20.077 20.077-20.077 19.503-19.694-19.503m19.694-20.077 20.077-19.504m-20.077 19.504-19.694-19.504m39.771 0L82.501 521.17m19.885 0v-39.581m0 39.581-39.353-39.581m39.353 39.581H82.501m19.885-39.581 19.504-20.077m-19.504 20.077H82.709m19.677 0L62.615 521.17m59.275-59.658-19.504-20.077m19.504 20.077h-19.504m0-20.077-39.233-39.46m39.233 39.46-19.616-.174m19.616-39.407 19.504-20.364m-19.504 20.364-39.233.121m39.233-.121-39.233 39.233m58.737-59.597v-20.364l-19.504-19.504 19.504-19.503v-20.364m0 79.735-19.504-20.364m19.504 20.364h-19.504m0-20.364v-39.007m0 39.007-39.233-39.007m39.233 39.007H82.309m20.077-39.007 19.504-20.364m-19.504 20.364H63.153m39.233 0-39.007 39.007m58.511-59.371v-20.364l-19.504-19.504 19.504-20.077v-20.077m0 80.022-19.504-20.364m19.504 20.364h-19.504m0-20.364V241.81m0 39.581-39.81-39.581m39.81 39.581-39.81.459m39.81-40.04 19.504-20.077m-19.504 20.077h-39.81m39.81 0-39.81 40.04m59.314-60.117v-20.077l-19.504-19.504 19.504-19.504v-20.65m0 79.735-19.504-20.077m19.504 20.077h-19.504m0-20.077v-39.008m0 39.008-39.007-39.008m39.007 39.008H82.882m19.504-39.008 19.504-20.65m-19.504 20.65H63.379m39.007 0L2.574 261.887l60.58 60.232m58.736-180.121v-20.651l-19.504-19.504L121.89 82.34V62.262m0 79.736-19.504-19.504m19.504 19.504h-19.504m0-19.504V82.34m0 40.154L61.658 81.571m40.728 40.923H82.309m20.077-40.154 19.504-20.078M102.386 82.34l-40.728-.769m40.728.769-40.154 40.154M42.442 82.34l19.216 19.503-19.217 19.504m0-39.007-20.364 20.077m20.364 18.93v41.301m0-41.301-20.364-18.93m20.364 60.231 20.364 19.504-20.364 19.504m0-39.008-20.364 19.504m20.364 19.504v40.154m0-40.154-20.364-19.504m20.364 59.658 19.79 20.077-19.79 19.504m0-39.581-20.364 20.077m20.364 19.504v40.728m0-40.728-20.364-19.504m20.364 60.232 20.364 19.503-20.364 19.504m0-39.007-20.364 20.077m20.364 18.93v40.728m0-40.728-20.364-18.93m20.364 59.658 20.364 19.503-20.364 20.078m0-39.581-20.364 19.79m20.364 19.791v40.154m0-40.154-20.364-19.791m20.364 59.945 20.174 19.79L42.44 521.17m0-39.581-20.364 19.79m20.364 19.791v20.077m0-20.077-20.364-19.791m20.364 39.868 19.217 19.504m-19.217-19.504L3.147 501.093l60.006-60.006m-20.712 100.16 20.174-20.077M42.44 541.247 22.54 560.751m39.119 0-19.217 20.077v20.651m19.217-40.728h20.364m-39.58 40.728 19.79 18.93-19.79 20.077m0-39.007-20.134 19.503m20.133 19.504v40.728m0-40.728-20.133-19.504m20.133 60.232 19.79 18.93-19.79 20.651m0-39.581-20.133 19.79m20.133 19.791v20.077m0-20.077-20.133-19.791m20.133 59.945 19.217 19.503-19.217 19.504m0-39.007v-20.077m0 20.077-20.307 19.503m20.307 19.504v20.651m0-20.651-20.307-19.504m20.307 60.806 18.643 18.93-18.643 19.503m0-38.433v-20.651m0 20.651-20.133 19.216m20.133 19.217v20.364m0-20.364-20.133-19.217m20.133 59.945 19.217 19.504m-19.217-19.504v-20.364m0 20.364-19.79 19.504L42.44 960l19.217-20.077m0 0v-19.504h20.364m0 0 20.364-20.364m-20.364 20.364-19.217-20.364m39.581 0-20.364-20.364m0 0H61.658m20.364 0-19.217 20.364m-1.147-20.364-19.217 20.364m19.217-20.364v-38.433h20.364m-39.58 58.797h20.363m-20.364 0-20.07 20.364m20.07-20.364h-19.79m59.371-58.797 20.364-20.651m-20.364 20.651-19.217-20.651m39.581 0-20.364-20.651m0 0-19.217 20.651m19.217-20.651H61.658l1.147-39.007h19.79m-19.79 59.658H42.441m0 0H22.077m20.364-79.735L2 780.452l19.729 19.504m20.712-59.084H22.077m20.364 0 20.364-20.267M102.386 960l-79.847-80.309m-.169 40.728L3.147 939.923 22.651 960l-.28-39.581Zm0 0H3.147l19.504-20.364m0 0L2 879.691h20.539m0 0L3.147 860.188l18.93-18.93m.462 38.433-.231-19.217m-.23-19.216.23 19.216m-.23-19.216H2l20.077-20.651m0 0L2 799.956h19.729m0 0 .405-19.504m-.057-39.58L2 760.949h20.539l-.405 19.503m-.057-39.58L2 720.795h20.539l-.231-19.791m-.23 39.868h40.727M22.077 660.85 2 681.214h20.077l.231 19.79m-.23-40.154L2 640.486h20.077l.231-19.504m-.23 39.868h40.727m-40.728-80.022L2 600.331l20.539 1.148-.231 19.503m-.23-40.154-18.93-20.077m18.93 20.077h20.268M3.147 560.751l18.93-19.504m-18.93 19.504H22.54m-.462-19.504L2 521.17h20.077v-19.791m0 39.868h40.538m-40.538-79.735-18.93 20.077h18.93v19.79m0-39.867-18.93-20.077h18.93v-19.791m0 39.868h41.076M22.077 381.49l-18.93 20.364h18.93v19.79m0-40.154-18.93-19.217h18.93v-20.077m0 39.294h41.076m-41.076-78.875-18.93 19.504h18.93v20.077m0-39.581L2.574 281.964h19.503v-20.077m0 40.728h40.5m-40.5-80.882L2.574 241.81h19.503v20.077m0-40.154L2.574 201.656h19.503v-19.504m0 39.581H63.38m-41.302-79.735-19.503 20.65h19.503v19.504m0-40.154L2.574 122.494h19.503v-20.077m0 39.581h40.155m-.574-60.427.574 40.923m0 0L2.574 182.152l60.002 59.658m-.344-119.316h20.077m-20.077 19.504 20.077-19.504m-20.077 19.504 20.077 20.65 20.077-20.65m-20.077-19.504 20.077 19.504m-39.007 20.65v39.008h19.503M63.38 221.733l19.503-20.077M63.38 221.733l19.503 20.077 19.504-20.077m-19.504-20.077 19.504 20.077m-39.81 20.077v40.04m0 0L3.147 341.622l60.006 60.353m-.577-99.36 19.733-20.077 20.077 19.217m-39.81.86 19.733 19.504 20.077-20.364m-39.233 20.364.226 39.007m0 0L3.147 421.357l59.886 60.232m.346-120.463h18.93m-59.77 199.625 39.923 39.867m.691-219.128 19.156-20.364M63.153 381.49l19.156 20.364 20.077-20.364m-20.077-20.364 20.077 20.364m-39.233 20.485v39.112m0 0 19.617.174m-19.617 20.251 19.617-20.251m-19.617 20.251 19.556 20.077m.06-40.328 19.617 20.251m0 0-19.677 20.077m-19.676 0h19.676m-19.676 0-.418 39.581m0 0H82.5m-19.886 20.077L82.5 521.17m-.479 39.581-19.407 20.077m0 0H42.346m0 0L3.147 620.409l59.468 60.155m-.153-79.946.153 39.868H82.5m0 0L62.805 660.85m19.696-20.364 19.885 20.364m-39.58 0L82.5 681.214l19.885-20.364m-39.771 19.714.19 40.041m0 0 19.79.095m0 0 19.791 20.172M82.596 720.7l-19.79 20.172m39.58 0-19.79 20.077m0 0-19.79-20.077" stroke="#7A6145" stroke-width=".918"/></svg>