<svg width="144" height="53" viewBox="0 0 144 53" fill="none" xmlns="http://www.w3.org/2000/svg">
<path d="M10.2 17.168C9.304 17.168 8.534 16.958 7.89 16.538C7.25533 16.1087 6.812 15.5207 6.56 14.774L7.4 14.284C7.57733 14.8907 7.904 15.3667 8.38 15.712C8.856 16.048 9.46733 16.216 10.214 16.216C10.942 16.216 11.5067 16.0573 11.908 15.74C12.3187 15.4133 12.524 14.984 12.524 14.452C12.524 13.9387 12.3373 13.5513 11.964 13.29C11.5907 13.0287 10.9747 12.758 10.116 12.478C9.09867 12.142 8.42667 11.8713 8.1 11.666C7.35333 11.218 6.98 10.5693 6.98 9.72C6.98 8.88933 7.26933 8.236 7.848 7.76C8.42667 7.27467 9.14067 7.032 9.99 7.032C10.7553 7.032 11.418 7.23267 11.978 7.634C12.538 8.026 12.9533 8.53 13.224 9.146L12.398 9.608C11.95 8.52533 11.1473 7.984 9.99 7.984C9.38333 7.984 8.89333 8.13333 8.52 8.432C8.14667 8.73067 7.96 9.146 7.96 9.678C7.96 10.1633 8.128 10.5273 8.464 10.77C8.8 11.0127 9.35533 11.26 10.13 11.512C10.4847 11.6333 10.7367 11.722 10.886 11.778C11.0447 11.8247 11.2687 11.9087 11.558 12.03C11.8567 12.142 12.076 12.2447 12.216 12.338C12.356 12.422 12.524 12.5433 12.72 12.702C12.9253 12.8513 13.07 13.0053 13.154 13.164C13.2473 13.3133 13.3267 13.5 13.392 13.724C13.4667 13.9387 13.504 14.172 13.504 14.424C13.504 15.2547 13.2007 15.922 12.594 16.426C11.9873 16.9207 11.1893 17.168 10.2 17.168ZM21.3184 16.216C20.6464 16.8507 19.7691 17.168 18.6864 17.168C17.6037 17.168 16.7264 16.8507 16.0544 16.216C15.3824 15.5813 15.0464 14.732 15.0464 13.668V7.2H16.0264V13.668C16.0264 14.452 16.2597 15.0727 16.7264 15.53C17.1931 15.9873 17.8464 16.216 18.6864 16.216C19.5264 16.216 20.1797 15.9873 20.6464 15.53C21.1131 15.0727 21.3464 14.452 21.3464 13.668V7.2H22.3264V13.668C22.3264 14.732 21.9904 15.5813 21.3184 16.216ZM30.7286 7.2H31.7086V17H30.8686L25.4086 9.02V17H24.4286V7.2H25.2686L30.7286 15.18V7.2ZM42.9042 7.2V17H41.9242V8.684L38.4942 14.424H38.3542L34.9242 8.684V17H33.9442V7.2H35.1622L38.4242 12.66L41.6862 7.2H42.9042ZM51.6655 17L50.7555 14.592H46.1075L45.1975 17H44.1615L47.9275 7.2H48.9355L52.7015 17H51.6655ZM46.4575 13.668H50.4055L48.4315 8.418L46.4575 13.668ZM59.9798 17L57.6838 13.08H54.9398V17H53.9598V7.2H57.8798C58.6918 7.2 59.3825 7.48933 59.9518 8.068C60.5305 8.63733 60.8198 9.328 60.8198 10.14C60.8198 10.8027 60.6192 11.3953 60.2178 11.918C59.8258 12.4313 59.3218 12.7767 58.7058 12.954L61.0998 17H59.9798ZM54.9398 8.124V12.156H57.8798C58.4212 12.156 58.8832 11.96 59.2658 11.568C59.6485 11.1667 59.8398 10.6907 59.8398 10.14C59.8398 9.58 59.6485 9.104 59.2658 8.712C58.8832 8.32 58.4212 8.124 57.8798 8.124H54.9398ZM72.0248 17L69.7288 13.08H66.9848V17H66.0048V7.2H69.9248C70.7368 7.2 71.4274 7.48933 71.9968 8.068C72.5754 8.63733 72.8648 9.328 72.8648 10.14C72.8648 10.8027 72.6641 11.3953 72.2628 11.918C71.8708 12.4313 71.3668 12.7767 70.7508 12.954L73.1448 17H72.0248ZM66.9848 8.124V12.156H69.9248C70.4661 12.156 70.9281 11.96 71.3108 11.568C71.6934 11.1667 71.8848 10.6907 71.8848 10.14C71.8848 9.58 71.6934 9.104 71.3108 8.712C70.9281 8.32 70.4661 8.124 69.9248 8.124H66.9848ZM75.5297 16.076H80.2897V17H74.5497V7.2H80.2197V8.124H75.5297V11.596H79.8697V12.52H75.5297V16.076ZM85.0535 17.168C84.1575 17.168 83.3875 16.958 82.7435 16.538C82.1088 16.1087 81.6655 15.5207 81.4135 14.774L82.2535 14.284C82.4308 14.8907 82.7575 15.3667 83.2335 15.712C83.7095 16.048 84.3208 16.216 85.0675 16.216C85.7955 16.216 86.3602 16.0573 86.7615 15.74C87.1722 15.4133 87.3775 14.984 87.3775 14.452C87.3775 13.9387 87.1908 13.5513 86.8175 13.29C86.4442 13.0287 85.8282 12.758 84.9695 12.478C83.9522 12.142 83.2802 11.8713 82.9535 11.666C82.2068 11.218 81.8335 10.5693 81.8335 9.72C81.8335 8.88933 82.1228 8.236 82.7015 7.76C83.2802 7.27467 83.9942 7.032 84.8435 7.032C85.6088 7.032 86.2715 7.23267 86.8315 7.634C87.3915 8.026 87.8068 8.53 88.0775 9.146L87.2515 9.608C86.8035 8.52533 86.0008 7.984 84.8435 7.984C84.2368 7.984 83.7468 8.13333 83.3735 8.432C83.0002 8.73067 82.8135 9.146 82.8135 9.678C82.8135 10.1633 82.9815 10.5273 83.3175 10.77C83.6535 11.0127 84.2088 11.26 84.9835 11.512C85.3382 11.6333 85.5902 11.722 85.7395 11.778C85.8982 11.8247 86.1222 11.9087 86.4115 12.03C86.7102 12.142 86.9295 12.2447 87.0695 12.338C87.2095 12.422 87.3775 12.5433 87.5735 12.702C87.7788 12.8513 87.9235 13.0053 88.0075 13.164C88.1008 13.3133 88.1802 13.5 88.2455 13.724C88.3202 13.9387 88.3575 14.172 88.3575 14.424C88.3575 15.2547 88.0542 15.922 87.4475 16.426C86.8408 16.9207 86.0428 17.168 85.0535 17.168ZM89.9716 7.2H90.9516V17H89.9716V7.2ZM96.9781 7.2C98.3128 7.2 99.4141 7.676 100.282 8.628C101.159 9.57067 101.598 10.728 101.598 12.1C101.598 13.472 101.159 14.634 100.282 15.586C99.4141 16.5287 98.3128 17 96.9781 17H93.1981V7.2H96.9781ZM96.9781 16.076C98.0515 16.076 98.9288 15.6933 99.6101 14.928C100.301 14.1627 100.646 13.22 100.646 12.1C100.646 10.98 100.301 10.0373 99.6101 9.272C98.9288 8.50667 98.0515 8.124 96.9781 8.124H94.1781V16.076H96.9781ZM104.254 16.076H109.014V17H103.274V7.2H108.944V8.124H104.254V11.596H108.594V12.52H104.254V16.076ZM116.998 7.2H117.978V17H117.138L111.678 9.02V17H110.698V7.2H111.538L116.998 15.18V7.2ZM124.792 17.168C123.308 17.168 122.08 16.678 121.11 15.698C120.139 14.718 119.654 13.5187 119.654 12.1C119.654 10.6813 120.139 9.482 121.11 8.502C122.08 7.522 123.308 7.032 124.792 7.032C125.697 7.032 126.528 7.25133 127.284 7.69C128.04 8.11933 128.623 8.70267 129.034 9.44L128.166 9.944C127.858 9.34667 127.4 8.87067 126.794 8.516C126.187 8.16133 125.52 7.984 124.792 7.984C123.569 7.984 122.57 8.38067 121.796 9.174C121.021 9.96733 120.634 10.9427 120.634 12.1C120.634 13.2573 121.021 14.2327 121.796 15.026C122.57 15.8193 123.569 16.216 124.792 16.216C125.52 16.216 126.187 16.0387 126.794 15.684C127.4 15.3293 127.858 14.8533 128.166 14.256L129.034 14.746C128.632 15.4833 128.049 16.0713 127.284 16.51C126.528 16.9487 125.697 17.168 124.792 17.168ZM131.625 16.076H136.385V17H130.645V7.2H136.315V8.124H131.625V11.596H135.965V12.52H131.625V16.076Z" fill="white"/>
<path fill-rule="evenodd" clip-rule="evenodd" d="M5.11485 29.1745C3.20571 29.7582 1.62235 31.34 1.09332 33.1924C0.781127 34.2855 0.839813 35.7834 1.23627 36.8408C1.81624 38.3881 2.84627 39.3082 6.7132 41.7329C9.82405 43.6835 10.8509 44.5623 11.3975 45.7421C12.8126 48.7953 10.2232 51.8042 6.73805 51.1569C4.46296 50.7343 2.66647 49.2158 1.39794 46.6432C0.865923 45.5642 0.558131 45.1288 0.327554 45.1288C0.149332 45.1288 0.00195478 45.2286 1.56762e-05 45.3503C-0.00209971 45.4721 0.210149 47.1461 0.471751 49.0702C0.927088 52.4203 0.963748 52.5687 1.33782 52.5687C1.60876 52.5687 1.76265 52.4313 1.84039 52.1199C2.04241 51.3112 2.55293 51.2568 4.44408 51.8426C5.38367 52.1335 6.61765 52.4246 7.18633 52.4892C8.55781 52.6451 10.5715 52.3149 11.6747 51.753C12.8445 51.1575 14.1758 49.8907 14.6358 48.9358C15.3984 47.3528 15.3963 45.0337 14.6307 43.5257C14.1315 42.5424 12.7036 41.2078 10.9018 40.0406C4.68718 36.0144 4.4395 35.807 4.03546 34.2889C3.47488 32.183 5.02687 30.3911 7.40139 30.4026C10.1759 30.4159 12.4771 32.3942 13.428 35.5832C13.5905 36.1285 13.7192 36.2718 14.046 36.2718C14.2782 36.2718 14.4589 36.1655 14.4589 36.0289C14.4589 35.7104 13.9608 30.7308 13.8322 29.7619C13.7088 28.8326 13.3566 28.7754 12.6911 29.5764C12.1621 30.2131 12.2779 30.2203 9.43869 29.3752C8.18303 29.0014 6.01071 28.9006 5.11485 29.1745ZM108.879 29.1516C108.831 29.2301 107.074 33.3525 104.974 38.3125C99.7787 50.5849 99.6477 50.8386 98.281 51.277C97.9902 51.3704 97.7266 51.5796 97.6952 51.742C97.6436 52.0093 97.9567 52.0373 101.001 52.0373C103.86 52.0373 104.363 51.9978 104.363 51.7737C104.363 51.6028 104.113 51.4699 103.651 51.3957C103.26 51.333 102.745 51.127 102.506 50.938C101.846 50.4165 101.946 49.617 102.999 46.9888L103.922 44.686L108.261 44.6387C111.6 44.6022 112.64 44.6431 112.773 44.8158C112.869 44.9393 113.331 45.957 113.801 47.0774C114.833 49.5396 114.96 50.7212 114.235 51.0909C113.992 51.2143 113.496 51.3619 113.133 51.4186C112.719 51.4832 112.472 51.6184 112.472 51.7796C112.472 51.9982 113.129 52.0373 116.791 52.0373C120.551 52.0373 121.11 52.0022 121.11 51.7661C121.11 51.6168 120.971 51.4517 120.801 51.3989C119.811 51.0909 119.332 50.7461 118.925 50.0487C118.679 49.6271 116.58 44.94 114.26 39.6327C111.94 34.3256 109.942 29.7642 109.819 29.4962C109.607 29.0361 109.071 28.8395 108.879 29.1516ZM17.9845 29.6822C17.9845 29.9284 18.2188 30.0496 19.012 30.2143C19.701 30.3572 20.1804 30.578 20.4664 30.8837L20.8932 31.3397L21.0002 38.7215C21.0892 44.8582 21.1571 46.2801 21.4026 47.1527C22.0413 49.4215 23.1307 50.752 25.1239 51.6972C27.5411 52.8435 31.7089 52.8488 34.2733 51.7089C35.246 51.2765 36.5565 50.0813 37.1233 49.1097C38.0784 47.4719 38.1173 47.1447 38.2617 39.5489C38.3454 35.1427 38.4722 32.2151 38.5972 31.807C38.8565 30.9595 39.4555 30.4991 40.6475 30.2311C41.3835 30.0657 41.6063 29.9397 41.6063 29.6894C41.6063 29.3824 41.3745 29.3633 37.64 29.3633C33.799 29.3633 33.6736 29.3745 33.6736 29.7155C33.6736 29.9883 33.8296 30.0928 34.3657 30.1789C35.3557 30.3379 36.1169 30.8637 36.4606 31.6257C36.7238 32.2091 36.7586 33.082 36.7586 39.106C36.7586 45.7389 36.7474 45.9617 36.351 47.2297C35.5205 49.8859 33.4771 51.0933 30.0658 50.9435C28.6725 50.8822 28.2623 50.7902 27.3962 50.3453C26.2014 49.7311 25.361 48.7259 24.9172 47.3796C24.6557 46.5867 24.6039 45.5005 24.5475 39.6375C24.5115 35.8865 24.5323 32.4773 24.5939 32.0613C24.7615 30.9291 25.2713 30.454 26.5783 30.2127C27.453 30.0513 27.68 29.9427 27.68 29.6862C27.68 29.3816 27.4061 29.3633 22.8323 29.3633C18.2817 29.3633 17.9845 29.3828 17.9845 29.6822ZM42.4877 29.7176C42.4877 29.9748 42.6053 30.0719 42.917 30.0719C43.638 30.0719 44.3034 30.4122 45.0879 31.1818L45.8371 31.917V40.0045C45.8371 44.6986 45.7623 48.4922 45.6592 49.0461C45.3736 50.5768 44.9224 50.9731 42.9725 51.4053C42.7058 51.4643 42.4877 51.6308 42.4877 51.775C42.4877 51.9991 43.079 52.0373 46.5422 52.0373C50.0055 52.0373 50.5967 51.9991 50.5967 51.775C50.5967 51.6308 50.3786 51.4657 50.1119 51.4085C47.3424 50.8129 47.2718 50.5405 47.2569 40.3756C47.2512 36.5106 47.3124 33.9629 47.4102 33.9985C47.4998 34.031 50.9163 38.2226 55.0025 43.3131C59.0886 48.4036 62.5402 52.5687 62.6724 52.5687C62.8719 52.5687 62.9259 50.8535 62.9886 42.516C63.0301 36.9871 63.1244 32.2422 63.1979 31.9719C63.4327 31.1097 64.1793 30.4892 65.2793 30.2417C66.0577 30.0667 66.2858 29.9417 66.2858 29.6894C66.2858 29.3821 66.0515 29.3633 62.2313 29.3633C58.4446 29.3633 58.1768 29.3844 58.1768 29.6822C58.1768 29.9284 58.4111 30.0496 59.2044 30.2143C60.2965 30.4409 60.81 30.8373 61.1997 31.7547C61.4597 32.3666 61.6582 45.667 61.407 45.651C61.3272 45.6461 58.3663 41.9833 54.8275 37.5118L48.3932 29.3816L45.4404 29.3725C42.6021 29.3637 42.4877 29.3771 42.4877 29.7176ZM67.1672 29.6947C67.1672 29.9601 67.3486 30.0504 68.0761 30.1473C68.5761 30.2141 69.1954 30.3778 69.4522 30.5112C70.4117 31.0098 70.4232 31.1106 70.4831 39.4603C70.5392 47.2742 70.417 49.586 69.9065 50.3688C69.6628 50.7424 68.7136 51.1801 67.652 51.4085C67.3853 51.4657 67.1672 51.6308 67.1672 51.775C67.1672 51.9989 67.7497 52.0373 71.1464 52.0373C74.8184 52.0373 75.1212 52.0138 75.0673 51.7319C75.0282 51.5277 74.7641 51.3847 74.2693 51.2997C73.1698 51.1112 72.8151 50.854 72.3951 49.9407C72.0273 49.1412 72.0132 48.866 71.9607 41.4363C71.9307 37.2133 71.9704 33.798 72.049 33.8467C72.1275 33.8955 74.0555 38.0083 76.3332 42.9863C79.3354 49.548 80.5538 52.0373 80.7626 52.0373C80.973 52.0373 82.1369 49.605 85.0646 43.0474C87.2722 38.1029 89.2237 33.7785 89.4015 33.4375C89.7185 32.8294 89.7239 32.9832 89.6839 41.4168C89.6471 49.1983 89.6145 50.0604 89.3409 50.4795C89.0375 50.9447 88.4485 51.2032 87.2193 51.4104C86.8093 51.4797 86.5583 51.6198 86.5583 51.7796C86.5583 51.9989 87.2815 52.0373 91.406 52.0373C95.57 52.0373 96.2538 52.0003 96.2538 51.775C96.2538 51.6308 96.0357 51.4676 95.769 51.4127C94.5301 51.1571 93.9938 50.9491 93.6824 50.6032C93.359 50.2443 93.3451 49.8367 93.3451 40.7846V31.3406L93.7719 30.8841C94.058 30.5778 94.5368 30.3574 95.2262 30.2143C96.0195 30.0496 96.2538 29.9284 96.2538 29.6822C96.2538 29.3862 96.0096 29.3633 92.8374 29.3633H89.4209L87.926 32.7733C87.1039 34.6487 85.4139 38.5162 84.1707 41.3674C82.9274 44.2189 81.858 46.4907 81.7944 46.4159C81.7306 46.3414 79.9454 42.474 77.827 37.8218L73.9754 29.3633H70.5713C67.3629 29.3633 67.1672 29.3824 67.1672 29.6947ZM122.167 29.6719C122.167 29.9427 122.367 30.0605 123.113 30.2281C123.7 30.3603 124.218 30.6113 124.479 30.8904L124.9 31.3402L124.946 40.4931C124.989 48.9395 124.968 49.6934 124.682 50.2615C124.377 50.865 123.884 51.1436 122.652 51.4085C122.385 51.4657 122.167 51.6308 122.167 51.775C122.167 52.0001 122.831 52.0373 126.839 52.0373C130.847 52.0373 131.51 52.0001 131.51 51.775C131.51 51.6308 131.292 51.4676 131.025 51.4127C128.551 50.9022 128.615 51.0476 128.546 45.8014L128.49 41.586H129.442H130.394L134.417 46.8117L138.44 52.0373H141.246C143.799 52.0373 144.047 52.01 143.994 51.7344C143.96 51.5585 143.704 51.3838 143.383 51.3178C142.259 51.0868 141.523 50.3552 137.851 45.8188C135.799 43.2829 134.147 41.1876 134.181 41.163C134.215 41.1382 134.639 41.03 135.124 40.9223C137.123 40.478 138.788 39.4226 139.55 38.1157C139.93 37.4632 140.049 36.9979 140.111 35.9232C140.299 32.6748 138.856 30.7967 135.461 29.8675C134.196 29.5211 133.514 29.4783 128.117 29.4069C122.319 29.3302 122.167 29.3369 122.167 29.6719ZM132.915 30.9728C134.132 31.2352 135.373 32.1083 135.915 33.0833C136.291 33.7601 136.358 34.1075 136.358 35.3861C136.358 36.721 136.301 36.9889 135.858 37.747C134.965 39.2729 133.276 39.9978 129.967 40.2752L128.513 40.3971V35.9127C128.513 30.5022 128.403 30.7804 130.559 30.7804C131.364 30.7804 132.424 30.8671 132.915 30.9728ZM110.347 38.6499C111.322 40.9809 112.119 42.9936 112.119 43.1227C112.119 43.3103 111.358 43.3574 108.329 43.3574C106.245 43.3574 104.539 43.3195 104.539 43.2731C104.539 43.195 107.111 36.9045 107.931 34.978C108.13 34.51 108.356 34.1911 108.434 34.2694C108.512 34.3477 109.373 36.3189 110.347 38.6499Z" fill="white"/>
</svg>
